<?xml version="1.0" standalone="no"?>
<!DOCTYPE svg PUBLIC "-//W3C//DTD SVG 20010904//EN"
 "http://www.w3.org/TR/2001/REC-SVG-20010904/DTD/svg10.dtd">
<svg version="1.0" xmlns="http://www.w3.org/2000/svg"
 width="1080.000000pt" height="1080.000000pt" viewBox="0 0 1080.000000 1080.000000"
 preserveAspectRatio="xMidYMid meet">
<metadata>
Created by potrace 1.14, written by Peter Selinger 2001-2017
</metadata>
<g transform="translate(0.000000,1080.000000) scale(0.100000,-0.100000)"
fill="#000000" stroke="none">
<path d="M4615 10790 c2541 -3 4973 -3 5405 0 432 3 -1647 5 -4620 5 l-5405 0
4620 -5z"/>
<path d="M2114 10505 c-8 -20 3 -48 16 -40 13 8 13 55 0 55 -6 0 -13 -7 -16
-15z"/>
<path d="M2115 10410 c-3 -5 1 -10 10 -10 9 0 13 5 10 10 -3 6 -8 10 -10 10
-2 0 -7 -4 -10 -10z"/>
<path d="M2093 10338 c-21 -24 -38 -98 -22 -98 5 0 9 -4 9 -10 0 -5 -6 -10
-14 -10 -26 0 -28 -20 -4 -29 30 -11 64 5 49 23 -6 7 -8 16 -4 19 3 4 -1 7
-10 7 -22 0 -22 16 -1 24 11 4 14 13 10 31 -5 18 -2 25 9 25 8 0 15 9 15 20 0
26 -12 25 -37 -2z"/>
<path d="M2140 10230 c8 -5 11 -10 7 -10 -5 0 -1 -7 8 -16 8 -9 22 -13 30 -10
22 8 18 26 -5 26 -11 0 -20 5 -20 10 0 6 -8 10 -17 10 -15 0 -16 -2 -3 -10z"/>
<path d="M2480 10195 c0 -11 7 -15 23 -13 12 2 22 8 22 13 0 6 -10 11 -22 13
-16 2 -23 -2 -23 -13z"/>
<path d="M8253 10040 c-12 -10 -24 -29 -28 -40 -4 -13 -18 -23 -37 -27 -25 -5
-27 -8 -14 -15 10 -5 25 -6 34 -2 9 4 22 8 27 9 23 2 55 31 55 50 0 38 -14 47
-37 25z"/>
<path d="M8465 10001 c-11 -5 -43 -32 -70 -61 -28 -28 -60 -56 -72 -61 -17 -6
-23 -17 -23 -39 0 -23 5 -31 23 -35 32 -8 101 19 106 42 5 27 21 43 42 43 12
0 26 15 39 41 21 46 19 59 -11 59 -11 0 -17 5 -14 10 7 11 7 11 -20 1z"/>
<path d="M1866 9903 c-27 -56 -46 -160 -23 -130 8 9 18 17 23 17 11 0 34 48
34 72 0 10 7 34 14 53 14 33 14 35 -4 35 -13 0 -27 -15 -44 -47z"/>
<path d="M8043 9867 c-23 -12 -42 -28 -43 -35 0 -9 9 -7 29 7 16 12 38 21 49
21 11 0 22 7 26 15 7 20 -10 18 -61 -8z"/>
<path d="M7955 9800 c-3 -5 -1 -10 4 -10 6 0 11 5 11 10 0 6 -2 10 -4 10 -3 0
-8 -4 -11 -10z"/>
<path d="M7860 9745 c-21 -25 -3 -29 26 -6 24 19 25 21 7 21 -11 0 -26 -7 -33
-15z"/>
<path d="M8543 9643 c-16 -6 -17 -39 -2 -49 6 -3 16 -1 22 5 13 13 -3 50 -20
44z"/>
<path d="M3222 9583 c2 -10 12 -22 23 -27 11 -5 42 -43 69 -85 28 -42 62 -90
77 -108 15 -17 29 -37 32 -45 3 -9 8 -10 16 -2 16 15 -1 56 -44 107 -29 34
-35 48 -35 88 0 47 -1 48 -40 60 -22 7 -40 16 -40 21 0 4 -14 8 -31 8 -24 0
-30 -4 -27 -17z"/>
<path d="M5270 9534 c0 -8 4 -14 8 -14 5 0 14 -11 20 -25 6 -14 16 -25 22 -25
6 0 16 11 22 25 6 14 20 25 30 25 11 0 18 5 16 13 -7 18 -118 19 -118 1z"/>
<path d="M5030 9442 c-8 -9 -14 -20 -12 -24 1 -5 -2 -8 -8 -8 -19 0 -25 5 -22
18 3 13 -8 15 -33 6 -13 -5 -14 -9 -3 -15 11 -7 11 -11 0 -17 -7 -5 -16 -22
-21 -38 -7 -26 -12 -29 -42 -26 -19 1 -46 3 -61 4 -16 0 -28 5 -28 9 0 5 -9 9
-19 9 -11 0 -22 8 -25 18 -4 9 -22 27 -41 40 -34 21 -57 24 -97 9 -10 -4 -25
-9 -33 -12 -8 -2 -23 -24 -34 -48 -19 -41 -25 -46 -70 -57 -57 -13 -78 -6
-110 39 -20 28 -65 40 -77 20 -3 -5 -13 -9 -23 -9 -10 0 -27 -11 -37 -25 -14
-19 -28 -25 -57 -25 -39 0 -97 26 -97 44 0 15 -52 66 -67 66 -7 0 -13 5 -13
11 0 6 -13 1 -29 -10 -16 -12 -34 -21 -39 -21 -6 0 -25 -18 -42 -40 -22 -28
-29 -46 -25 -60 3 -11 11 -20 16 -20 5 0 9 -7 9 -15 0 -55 47 -86 126 -82 38
1 57 -3 71 -15 11 -10 34 -18 52 -18 19 0 34 -6 37 -15 12 -31 26 -15 19 21
-7 38 3 54 35 54 13 0 13 -2 1 -9 -12 -8 -12 -14 0 -43 7 -18 12 -37 10 -43
-2 -5 -7 -24 -11 -42 -6 -27 -5 -33 11 -38 24 -8 79 3 79 16 0 5 8 17 18 27 9
10 31 34 48 53 37 41 79 73 90 69 5 -2 14 -17 19 -33 11 -33 60 -56 79 -37 6
6 24 10 41 10 19 0 39 8 50 20 15 16 29 20 72 18 37 -2 57 2 63 11 8 14 35 12
74 -4 14 -6 17 -5 12 3 -12 20 54 14 90 -8 36 -23 48 -47 53 -100 1 -9 4 -11
9 -5 4 6 24 21 44 35 45 30 53 47 33 70 -21 23 -19 53 6 76 26 23 52 82 50
112 -3 57 -107 112 -141 74z"/>
<path d="M5360 9417 c0 -13 -6 -16 -23 -12 -38 10 -77 -28 -77 -75 0 -21 5
-42 10 -45 6 -3 10 -22 10 -41 0 -39 9 -43 36 -13 10 12 32 28 48 36 27 14 28
17 24 79 -2 35 -9 69 -16 76 -9 9 -12 8 -12 -5z"/>
<path d="M5697 9356 c-14 -13 -29 -36 -33 -50 -4 -17 -13 -26 -26 -26 -12 0
-23 -11 -29 -30 -6 -16 -14 -30 -17 -30 -4 0 -13 -4 -21 -9 -11 -7 -8 -17 15
-52 17 -24 34 -53 40 -63 17 -32 40 -42 66 -29 39 19 79 21 117 6 20 -9 61
-16 91 -17 50 -2 56 -4 69 -30 12 -26 12 -31 -2 -41 -9 -6 -21 -23 -27 -36 -5
-13 -17 -34 -26 -46 -16 -22 -16 -23 8 -23 17 0 32 11 49 37 19 29 36 40 84
55 33 10 64 23 69 28 13 13 66 13 105 -1 27 -9 45 -8 94 6 92 26 114 35 132
55 9 10 24 16 35 13 10 -3 33 2 52 10 18 9 42 18 53 21 32 10 75 53 75 76 0
15 -6 20 -29 20 -16 0 -34 7 -41 15 -8 10 -31 15 -70 15 -39 0 -62 -5 -70 -15
-7 -8 -19 -15 -26 -15 -8 0 -14 -6 -14 -13 0 -19 -48 -60 -125 -107 -74 -46
-91 -49 -100 -19 -8 24 8 39 43 39 25 0 62 33 62 55 0 9 -13 24 -30 33 -16 9
-30 20 -30 24 0 4 -11 3 -25 -2 -15 -6 -26 -6 -30 0 -4 6 -17 10 -31 10 -14 0
-27 7 -30 15 -7 18 -70 20 -77 3 -4 -10 -8 -10 -15 0 -12 17 -154 19 -195 3
-16 -6 -39 -11 -53 -11 -33 0 -32 38 1 78 32 39 32 48 -6 61 -45 15 -53 14
-82 -13z"/>
<path d="M520 9315 c-7 -8 -19 -15 -26 -15 -8 0 -14 -10 -14 -22 l0 -21 18 21
c13 15 30 21 54 20 43 -1 67 10 47 23 -22 14 -65 10 -79 -6z"/>
<path d="M7300 9298 c0 -20 1 -21 20 -3 11 10 20 20 20 22 0 1 -9 3 -20 3 -14
0 -20 -7 -20 -22z"/>
<path d="M400 9250 c0 -28 2 -31 23 -24 49 15 54 22 23 34 -16 6 -33 13 -37
16 -5 3 -9 -9 -9 -26z"/>
<path d="M293 9258 c-36 -9 -42 -22 -17 -32 26 -10 51 -7 63 8 18 21 -8 35
-46 24z"/>
<path d="M0 9250 c0 -5 12 -10 26 -10 14 0 23 4 19 10 -3 6 -15 10 -26 10 -10
0 -19 -4 -19 -10z"/>
<path d="M2140 9235 c0 -8 5 -15 10 -15 6 0 10 7 10 15 0 8 -4 15 -10 15 -5 0
-10 -7 -10 -15z"/>
<path d="M3707 9232 c-2 -4 -2 -24 0 -44 4 -32 8 -36 22 -28 10 5 27 6 39 3
26 -6 37 15 28 51 -5 20 -12 24 -46 24 -22 0 -41 -2 -43 -6z"/>
<path d="M3541 9217 c-13 -13 43 -77 69 -77 12 0 17 -9 18 -31 1 -36 27 -69
54 -69 14 0 18 8 18 41 0 32 -3 40 -15 36 -9 -4 -21 8 -36 38 -12 24 -29 46
-38 49 -9 3 -26 10 -37 15 -14 6 -25 6 -33 -2z"/>
<path d="M5281 9168 c-1 -10 -7 -14 -19 -11 -12 3 -22 -4 -29 -19 -14 -31 0
-58 31 -58 28 0 37 25 26 72 -4 18 -8 26 -9 16z"/>
<path d="M2080 9150 c0 -5 9 -10 20 -10 11 0 20 5 20 10 0 6 -9 10 -20 10 -11
0 -20 -4 -20 -10z"/>
<path d="M10735 9130 c-19 -8 -19 -9 -1 -9 15 -1 16 -4 7 -15 -9 -11 -8 -15 5
-20 37 -14 54 -7 54 24 0 25 -4 30 -22 29 -13 0 -32 -4 -43 -9z"/>
<path d="M2044 9122 c-6 -4 -14 -24 -18 -44 -4 -21 -11 -38 -16 -38 -6 0 -10
-4 -10 -8 0 -19 44 -4 52 17 4 12 15 29 23 38 26 26 -1 56 -31 35z"/>
<path d="M160 9070 c0 -5 9 -10 21 -10 11 0 17 5 14 10 -3 6 -13 10 -21 10 -8
0 -14 -4 -14 -10z"/>
<path d="M240 9054 c0 -14 3 -14 15 -4 8 7 15 14 15 16 0 2 -7 4 -15 4 -8 0
-15 -7 -15 -16z"/>
<path d="M4560 9056 c0 -13 -7 -17 -27 -16 -47 3 -60 -1 -35 -10 13 -6 32 -6
46 0 13 5 34 6 47 3 13 -3 22 -4 19 -2 -3 2 -15 13 -27 23 -21 18 -23 18 -23
2z"/>
<path d="M5920 9030 c0 -5 4 -10 9 -10 6 0 13 5 16 10 3 6 -1 10 -9 10 -9 0
-16 -4 -16 -10z"/>
<path d="M10000 9025 c0 -11 -12 -15 -49 -15 -57 0 -69 -10 -41 -35 20 -18 21
-18 45 5 13 12 30 20 37 18 7 -3 24 -1 37 4 23 8 24 9 5 23 -25 19 -34 19 -34
0z"/>
<path d="M5725 9010 c-10 -16 14 -40 39 -40 12 0 31 6 41 14 18 13 17 15 -20
25 -49 13 -52 14 -60 1z"/>
<path d="M10655 8969 c-38 -4 -89 -13 -112 -20 -23 -6 -49 -9 -57 -6 -10 4
-19 -5 -28 -28 -13 -37 -26 -43 -46 -23 -9 9 -12 0 -12 -40 l0 -52 83 0 c80 0
84 1 95 25 6 14 16 25 22 25 6 0 16 -11 22 -25 10 -23 17 -25 70 -25 45 0 58
3 58 15 0 9 -7 18 -15 21 -18 7 -20 44 -2 44 7 0 21 16 31 36 16 35 16 37 -1
50 -10 7 -22 13 -28 12 -5 0 -41 -4 -80 -9z"/>
<path d="M10132 8892 c-9 -6 -6 -12 12 -20 29 -13 41 -5 21 14 -16 16 -16 16
-33 6z"/>
<path d="M10233 8886 c-9 -11 -8 -17 6 -30 10 -9 22 -16 28 -16 6 0 16 -13 22
-30 5 -16 13 -30 16 -30 17 0 35 32 35 60 0 17 -6 38 -14 46 -18 18 -77 18
-93 0z"/>
<path d="M5842 8828 c7 -19 38 -22 38 -4 0 10 -9 16 -21 16 -12 0 -19 -5 -17
-12z"/>
<path d="M9828 8803 c-38 -2 -68 -8 -68 -13 0 -6 -8 -10 -17 -10 -10 0 -25 -5
-33 -10 -13 -9 -13 -11 0 -20 25 -17 50 -12 50 10 0 17 7 20 40 20 38 0 40 -2
40 -30 l0 -30 65 0 65 0 0 39 c0 41 -13 53 -53 49 -12 -1 -52 -3 -89 -5z"/>
<path d="M1150 8790 c0 -5 5 -10 10 -10 6 0 10 5 10 10 0 6 -4 10 -10 10 -5 0
-10 -4 -10 -10z"/>
<path d="M1280 8760 c0 -22 5 -40 10 -40 6 0 10 18 10 40 0 22 -4 40 -10 40
-5 0 -10 -18 -10 -40z"/>
<path d="M10000 8779 c0 -24 23 -21 28 4 2 10 -3 17 -12 17 -10 0 -16 -9 -16
-21z"/>
<path d="M8395 8779 c-11 -4 -33 -6 -50 -3 -39 6 -65 -10 -47 -28 9 -9 19 -10
43 -1 25 10 31 9 36 -4 7 -17 -12 -33 -39 -33 -10 0 -18 -7 -18 -15 0 -8 7
-15 15 -15 8 0 15 -2 15 -5 0 -9 -36 -41 -56 -50 -17 -8 -17 -9 7 -12 14 -2
37 1 52 6 25 10 27 13 16 33 -10 19 -8 25 19 47 26 22 52 60 52 74 0 10 -26
14 -45 6z"/>
<path d="M8225 8749 c-4 -6 -5 -13 -2 -16 7 -7 27 6 27 18 0 12 -17 12 -25 -2z"/>
<path d="M204 8709 c-11 -18 11 -31 62 -37 48 -5 74 -20 74 -41 0 -13 17 -15
24 -2 3 5 17 9 32 9 24 0 49 20 39 31 -5 5 -78 12 -116 12 -15 0 -35 9 -44 19
-20 22 -60 27 -71 9z"/>
<path d="M9483 8713 c-61 -6 -57 -30 5 -35 61 -5 120 6 140 26 15 15 15 16 -5
16 -12 0 -23 -7 -25 -15 -3 -13 -6 -13 -32 0 -15 8 -31 14 -35 13 -3 -1 -25
-3 -48 -5z"/>
<path d="M10420 8650 c0 -23 4 -30 20 -30 16 0 20 -7 20 -30 0 -27 -3 -30 -30
-30 -16 0 -30 -4 -30 -9 0 -5 -22 -11 -48 -13 -27 -3 -62 -12 -79 -20 -23 -11
-34 -13 -42 -5 -8 8 -11 7 -11 -2 0 -7 -4 -10 -9 -6 -5 3 -21 -6 -36 -20 -14
-15 -33 -25 -43 -23 -9 1 -23 -1 -31 -6 -8 -5 -27 -9 -43 -10 -25 -1 -32 -7
-44 -41 -7 -22 -14 -48 -14 -58 0 -16 -28 -55 -33 -46 -1 2 -7 13 -13 24 -6
11 -29 27 -50 34 -21 8 -41 18 -44 22 -3 4 -12 7 -20 7 -8 -1 -28 0 -45 1 -26
2 -27 3 -10 11 19 8 19 9 -2 9 -12 1 -23 -2 -25 -6 -3 -8 -65 -39 -150 -76
-21 -9 -44 -14 -53 -11 -12 5 -15 -3 -15 -39 l0 -45 -46 6 c-27 3 -55 0 -70
-8 -18 -10 -30 -11 -48 -2 -15 6 -27 7 -33 1 -5 -5 -32 -12 -59 -15 -39 -5
-53 -3 -63 10 -18 22 -30 20 -76 -11 -37 -25 -40 -26 -68 -10 -23 14 -33 15
-50 5 -12 -6 -60 -11 -108 -12 -81 -1 -87 -2 -86 -21 3 -38 39 -74 77 -75 50
-3 54 -2 41 13 -9 11 -5 14 20 15 26 1 33 -5 45 -34 13 -32 17 -34 59 -34 25
0 45 5 45 10 0 6 11 10 25 10 14 0 25 -5 25 -10 0 -6 11 -16 25 -22 14 -6 25
-17 25 -24 0 -10 -78 -84 -109 -104 -5 -3 -9 -12 -9 -20 1 -8 0 -26 -1 -40 -3
-45 -20 0 -19 53 0 32 -6 55 -17 68 -18 18 -18 18 -39 -6 -15 -17 -30 -25 -46
-23 -31 4 -38 -27 -16 -71 9 -16 16 -40 16 -52 0 -13 8 -32 19 -43 24 -28 36
-83 40 -186 1 -47 10 -107 18 -133 20 -62 13 -233 -12 -292 -10 -22 -24 -80
-32 -130 -8 -54 -22 -101 -33 -117 -11 -15 -20 -31 -20 -36 0 -6 -18 -26 -40
-46 -22 -20 -40 -40 -40 -46 0 -12 -45 -24 -59 -15 -7 3 -8 0 -5 -10 4 -8 0
-22 -7 -31 -14 -18 -15 -223 -1 -252 5 -9 13 -38 16 -64 5 -32 12 -48 21 -48
11 0 13 -10 9 -42 -3 -24 0 -77 6 -118 7 -41 13 -106 14 -145 0 -38 5 -88 9
-110 5 -22 10 -49 12 -61 3 -12 23 -34 46 -49 22 -16 50 -47 61 -69 11 -21 33
-53 50 -70 16 -17 39 -49 50 -71 11 -22 24 -42 28 -45 3 -3 20 -25 37 -50 33
-49 58 -65 113 -74 37 -7 88 -53 247 -223 42 -46 84 -85 95 -88 10 -4 32 -26
48 -50 17 -24 65 -80 108 -123 127 -131 296 -313 306 -331 29 -51 134 -176
202 -241 118 -112 168 -175 219 -276 32 -63 54 -95 73 -105 15 -7 34 -21 42
-31 8 -10 33 -26 54 -36 l39 -19 -34 -17 c-20 -10 -35 -13 -37 -7 -2 7 -10 6
-22 -1 -17 -11 -17 -13 8 -47 39 -52 46 -54 58 -18 10 29 12 30 18 11 3 -12 4
-29 0 -38 -4 -11 -2 -16 7 -14 8 2 13 -3 11 -11 -15 -69 -15 -70 6 -64 13 3
22 15 24 32 2 15 12 30 26 36 31 14 29 45 -3 45 -14 0 -25 -4 -25 -10 0 -5 -7
-10 -15 -10 -33 0 -7 25 48 46 16 6 17 119 17 2177 l0 2170 -55 -6 c-30 -3
-55 -3 -55 1 0 4 -11 12 -25 19 -14 6 -25 7 -25 2 0 -16 -30 -10 -37 7 -6 17
23 48 38 39 12 -8 59 17 59 30 0 8 15 11 50 7 l50 -5 0 172 0 171 -52 0 c-29
0 -90 3 -135 7 -72 5 -83 4 -83 -10 0 -25 -20 -31 -35 -11 -13 18 -14 18 -15
2 0 -25 -20 -23 -20 2 0 13 -7 20 -20 20 -16 0 -20 -7 -20 -30z m-20 -240 c0
-5 -9 -10 -21 -10 -11 0 -17 5 -14 10 3 6 13 10 21 10 8 0 14 -4 14 -10z
m-294 -99 c-13 -20 -26 -11 -26 16 0 25 1 26 16 11 9 -9 13 -21 10 -27z m-383
-140 c8 -33 -26 -54 -50 -30 -8 8 -7 16 5 30 21 24 38 24 45 0z m360 -21 c-3
-10 6 -28 22 -44 21 -22 24 -29 15 -46 -6 -12 -18 -24 -26 -27 -8 -3 -14 -11
-14 -18 0 -14 -38 -27 -52 -19 -13 9 -9 51 7 64 13 11 12 16 -4 39 l-20 27 31
33 c31 33 51 29 41 -9z m520 11 c26 -6 27 -7 12 -28 -10 -14 -22 -19 -35 -16
-12 3 -20 0 -20 -7 0 -14 -45 -10 -93 9 -36 14 -27 27 23 36 22 4 43 11 46 17
3 5 13 6 23 2 9 -3 28 -9 44 -13z m-1163 -31 c0 -5 -4 -10 -9 -10 -6 0 -13 5
-16 10 -3 6 1 10 9 10 9 0 16 -4 16 -10z m35 0 c3 -5 1 -10 -4 -10 -6 0 -11 5
-11 10 0 6 2 10 4 10 3 0 8 -4 11 -10z m503 -45 c0 -23 -5 -35 -14 -35 -14 0
-21 60 -8 73 13 13 22 -3 22 -38z m-418 15 c0 -6 -9 -20 -20 -32 -11 -12 -20
-18 -20 -13 0 5 -13 -4 -29 -19 -15 -15 -32 -26 -37 -25 -17 5 -59 -14 -72
-32 -7 -11 -24 -19 -38 -19 -13 0 -32 -8 -42 -18 -16 -16 -19 -16 -33 -2 -9 8
-21 30 -27 48 -10 28 -9 34 5 39 9 4 21 -1 28 -10 21 -28 43 -20 54 20 6 20 8
39 6 43 -5 9 73 18 138 16 26 0 47 2 47 7 0 4 9 7 20 7 11 0 20 -5 20 -10z
m740 -26 c0 -18 -24 -44 -40 -44 -26 0 -25 14 3 33 23 17 37 21 37 11z m-560
-144 c0 -5 -4 -10 -10 -10 -5 0 -10 5 -10 10 0 6 5 10 10 10 6 0 10 -4 10 -10z
m-640 -119 c0 -22 -15 -35 -30 -26 -7 4 -7 13 0 26 14 25 30 25 30 0z"/>
<path d="M9420 8066 c0 -9 7 -16 16 -16 9 0 14 5 12 12 -6 18 -28 21 -28 4z"/>
<path d="M480 8646 c0 -19 4 -23 20 -19 11 3 30 -2 43 -10 27 -18 199 -27 204
-12 8 27 -17 40 -74 37 -39 -2 -69 2 -88 12 -17 9 -47 16 -67 16 -33 0 -38 -3
-38 -24z"/>
<path d="M8676 8658 c3 -10 1 -18 -5 -18 -6 0 -11 5 -11 10 0 7 -6 7 -20 0
-20 -11 -29 -60 -10 -60 18 0 59 23 64 35 2 7 -2 21 -10 32 -12 16 -13 16 -8
1z"/>
<path d="M1600 8650 c0 -5 5 -10 10 -10 6 0 8 -10 4 -24 -6 -27 12 -44 28 -28
14 14 -9 72 -28 72 -8 0 -14 -4 -14 -10z"/>
<path d="M2153 8643 c-7 -2 -13 -17 -13 -31 0 -15 -4 -42 -9 -59 -6 -21 -6
-45 2 -68 14 -45 3 -54 -58 -47 -43 4 -44 3 -59 -33 -20 -46 -15 -95 11 -112
11 -8 43 -16 72 -20 42 -5 55 -2 72 13 23 20 117 46 124 34 3 -4 -4 -19 -15
-33 -34 -43 -27 -87 25 -140 25 -26 45 -53 45 -60 0 -8 9 -22 19 -31 11 -10
23 -35 26 -57 9 -51 35 -52 89 -4 22 19 48 35 58 35 10 0 18 4 18 9 0 13 105
34 132 26 13 -3 46 -13 75 -22 29 -9 56 -14 60 -9 4 4 0 21 -10 37 -9 17 -17
38 -17 47 0 24 -37 81 -58 89 -9 4 -24 15 -32 24 -8 10 -34 24 -58 32 -24 7
-43 17 -43 20 1 4 1 14 1 22 0 30 31 26 110 -14 69 -35 83 -39 109 -30 28 10
43 39 33 67 -6 20 -120 83 -175 98 -29 8 -68 14 -87 14 -19 0 -64 9 -98 20
-35 11 -84 20 -109 20 -36 0 -54 7 -86 32 -22 18 -52 33 -66 34 -56 3 -54 2
-37 29 20 30 20 40 0 59 -16 16 -29 19 -51 9z"/>
<path d="M1667 8615 c-4 -8 -2 -17 3 -20 6 -4 10 3 10 14 0 25 -6 27 -13 6z"/>
<path d="M776 8602 c-19 -30 33 -62 103 -62 20 0 52 -4 71 -9 19 -5 65 -12
103 -15 56 -6 67 -4 67 9 0 8 -7 15 -15 15 -8 0 -15 5 -15 10 0 6 -11 10 -23
10 -13 0 -32 9 -42 20 -13 14 -30 20 -54 19 -20 -1 -70 2 -112 6 -50 5 -78 4
-83 -3z"/>
<path d="M1700 8471 c0 -16 -7 -36 -15 -45 -26 -26 -17 -66 17 -79 26 -9 30 6
22 83 -6 69 -24 98 -24 41z m0 -75 c0 -3 -4 -8 -10 -11 -5 -3 -10 -1 -10 4 0
6 5 11 10 11 6 0 10 -2 10 -4z"/>
<path d="M8633 8410 c2 -8 12 -16 23 -17 13 -2 15 -1 4 4 -8 3 -19 11 -23 17
-6 7 -7 6 -4 -4z"/>
<path d="M9202 8360 c0 -14 2 -19 5 -12 2 6 2 18 0 25 -3 6 -5 1 -5 -13z"/>
<path d="M9440 8309 c0 -41 0 -41 23 -26 12 8 22 25 22 38 0 17 -6 25 -22 27
-21 3 -23 -1 -23 -39z"/>
<path d="M8705 8321 c-8 -15 3 -31 21 -31 9 0 14 7 12 17 -4 20 -24 28 -33 14z"/>
<path d="M7775 8224 c-22 -9 -63 -17 -91 -18 -39 -1 -61 -8 -93 -31 -23 -17
-54 -36 -69 -44 -74 -39 -103 -63 -102 -84 4 -40 0 -47 -25 -57 -14 -5 -25
-16 -25 -25 0 -20 34 -19 51 1 9 11 25 15 53 12 32 -4 53 2 92 24 28 15 58 28
67 28 21 0 22 -28 2 -54 -8 -11 -15 -24 -15 -28 0 -11 71 0 154 24 81 23 162
32 171 18 3 -5 -7 -12 -22 -16 -48 -10 -81 -25 -99 -45 -16 -18 -16 -20 1 -39
9 -10 15 -26 12 -34 -3 -8 1 -17 9 -20 21 -8 21 -8 36 7 43 41 99 77 121 77
15 0 31 9 41 25 9 14 23 25 30 25 8 0 21 12 31 26 9 14 31 32 49 39 18 8 38
21 46 29 7 9 21 16 32 16 12 0 18 5 15 13 -2 6 -10 11 -16 10 -6 -2 -11 1 -11
7 0 6 -9 10 -21 10 -16 0 -19 4 -14 18 4 9 8 37 9 61 l3 44 -96 -8 c-111 -9
-190 -9 -246 -1 -25 3 -55 0 -80 -10z m382 -96 c-3 -7 -5 -2 -5 12 0 14 2 19
5 13 2 -7 2 -19 0 -25z"/>
<path d="M8447 8160 c-28 -23 -50 -85 -62 -175 -3 -27 -12 -73 -20 -101 -13
-44 -21 -55 -65 -82 -69 -43 -72 -56 -21 -102 l42 -39 -17 -32 c-15 -31 -15
-33 2 -46 10 -7 21 -13 26 -13 4 0 8 -10 8 -23 0 -13 6 -29 12 -35 10 -10 10
-17 0 -32 -15 -24 0 -53 35 -69 34 -15 26 -81 -8 -69 -8 3 -22 1 -32 -4 -13
-7 -15 -13 -7 -27 11 -22 47 -34 56 -19 7 10 67 6 112 -8 18 -5 22 -2 22 14 0
11 7 37 16 58 15 36 15 61 -2 157 -4 23 -2 43 5 51 19 22 24 107 11 156 -13
48 -15 59 -26 190 -3 47 -10 93 -15 102 -5 9 -13 47 -18 84 -6 37 -14 71 -19
76 -5 5 -20 0 -35 -12z m-87 -393 c0 -2 -7 -18 -15 -35 -10 -20 -21 -29 -30
-25 -20 7 -19 13 7 40 19 20 38 30 38 20z"/>
<path d="M4580 8103 c-27 -5 -52 -23 -32 -23 33 0 -14 -81 -61 -105 -19 -10
-22 -34 -2 -26 6 2 29 3 51 2 27 -1 54 6 77 19 19 11 42 18 51 14 13 -5 16 0
15 27 0 19 -8 48 -18 64 -18 30 -35 36 -81 28z"/>
<path d="M1870 8003 c0 -27 10 -68 21 -93 16 -36 20 -66 20 -148 0 -57 4 -114
9 -126 5 -11 11 -38 15 -58 3 -21 20 -52 39 -74 l33 -38 13 23 c14 27 6 79
-20 134 -17 34 -18 54 -13 160 12 212 11 216 -20 243 -18 15 -41 24 -63 24
l-34 0 0 -47z"/>
<path d="M4752 7969 c-7 -10 -12 -25 -12 -33 0 -8 -7 -16 -15 -20 -24 -9 -17
-36 13 -46 15 -6 34 -14 43 -19 20 -11 39 4 39 31 0 20 -35 93 -48 102 -4 2
-13 -4 -20 -15z"/>
<path d="M2298 7850 c-16 -16 -28 -39 -28 -52 0 -24 32 -60 64 -72 24 -8 66
29 66 58 0 26 -46 96 -63 96 -7 -1 -24 -14 -39 -30z"/>
<path d="M5225 7860 c-16 -11 -24 -20 -16 -20 15 0 12 -8 -3 -8 -8 -1 -46 -56
-46 -67 0 -11 33 -4 46 10 23 23 43 18 55 -12 8 -22 12 -24 19 -13 7 10 8 0 6
-31 -2 -26 -6 -52 -10 -58 -10 -16 5 -61 20 -61 8 0 14 -5 14 -10 0 -6 8 -5
21 2 18 11 20 19 14 63 -5 42 -2 54 14 72 18 19 19 25 8 46 -11 20 -17 23 -31
15 -28 -15 -44 6 -23 30 14 15 15 21 4 35 -20 26 -59 30 -92 7z"/>
<path d="M143 7817 c16 -25 51 -36 84 -28 19 5 34 23 17 20 -3 0 -15 6 -27 14
-12 8 -37 14 -55 15 -32 1 -33 0 -19 -21z"/>
<path d="M5447 7774 c-4 -4 -7 -20 -7 -36 0 -25 4 -29 23 -26 17 2 22 9 22 33
0 29 -22 45 -38 29z"/>
<path d="M8083 7732 c-9 -16 -26 -33 -37 -38 -17 -7 -21 -18 -21 -56 0 -25 -4
-50 -8 -54 -4 -4 -7 -16 -7 -26 0 -16 5 -15 40 10 47 32 53 46 41 90 -6 18 -6
30 -1 27 9 -6 40 45 40 65 0 21 -31 9 -47 -18z"/>
<path d="M400 7698 c1 -24 25 -44 53 -43 15 0 27 6 27 13 0 6 -8 12 -19 12
-10 0 -24 7 -31 15 -15 18 -30 20 -30 3z"/>
<path d="M673 7553 c-3 -9 0 -21 8 -27 8 -6 19 -20 25 -31 6 -11 28 -23 49
-27 21 -5 46 -18 57 -30 28 -33 43 -10 24 37 -12 27 -20 36 -32 31 -13 -5 -67
23 -84 44 -13 17 -41 19 -47 3z"/>
<path d="M5316 7492 c-3 -5 -10 -39 -16 -76 -6 -38 -11 -71 -12 -75 -5 -16 25
-80 35 -78 7 1 16 -13 21 -30 11 -35 35 -45 37 -15 9 210 9 261 -3 268 -19 12
-56 16 -62 6z"/>
<path d="M8223 7356 c-29 -27 -29 -38 -2 -34 27 4 48 33 34 47 -6 5 -19 0 -32
-13z"/>
<path d="M6212 7100 c0 -14 2 -19 5 -12 2 6 2 18 0 25 -3 6 -5 1 -5 -13z"/>
<path d="M8671 6930 c-9 -5 -7 -11 4 -20 13 -11 18 -11 31 2 14 14 14 16 -4
20 -11 3 -25 2 -31 -2z"/>
<path d="M3829 6896 c-103 -45 -199 -97 -199 -107 0 -16 -95 -100 -151 -134
-30 -19 -61 -46 -67 -59 -6 -14 -22 -28 -35 -32 -16 -4 -28 -16 -34 -37 -7
-26 -13 -31 -32 -29 -25 4 -41 -12 -41 -40 0 -19 34 -25 44 -9 8 12 139 1 148
-13 4 -6 8 -34 8 -63 0 -28 4 -63 10 -77 5 -14 16 -70 25 -123 9 -54 19 -100
24 -103 5 -3 27 -45 50 -93 97 -208 193 -258 467 -244 92 4 124 11 209 42 158
57 239 77 270 65 34 -13 35 -13 35 5 0 18 17 50 47 87 26 33 49 132 58 248 6
74 3 98 -19 183 -15 54 -33 108 -40 120 -8 12 -19 49 -26 82 -7 33 -19 71 -28
85 -10 14 -26 50 -37 80 -24 62 -48 80 -111 80 -25 0 -47 6 -54 15 -7 8 -24
15 -37 15 -14 0 -53 13 -87 29 -63 31 -131 45 -251 55 -64 5 -76 3 -146 -28z
m409 -338 c4 -29 -32 -78 -57 -78 -46 0 -57 66 -15 99 32 25 68 15 72 -21z
m-398 -80 c-1 -25 -67 -133 -83 -136 -46 -9 -17 110 33 135 32 16 50 16 50 1z"/>
<path d="M6540 6794 c-153 -26 -341 -137 -415 -245 -68 -100 -117 -295 -135
-539 -7 -100 -6 -119 9 -145 24 -42 135 -105 187 -105 28 0 55 -10 90 -32 144
-92 375 -139 532 -109 29 6 60 24 100 58 31 27 72 60 90 73 39 29 73 82 85
130 19 81 28 190 22 267 -6 83 -6 83 25 115 47 49 54 75 35 124 -9 23 -27 50
-41 58 -13 9 -24 21 -24 26 0 5 -15 43 -34 83 -27 58 -47 84 -92 120 -31 26
-64 47 -73 47 -9 0 -52 20 -96 43 -92 50 -129 54 -265 31z m103 -352 c-3 -66
-67 -95 -100 -45 -14 21 -13 25 16 53 22 23 38 30 58 28 25 -3 28 -7 26 -36z
m327 -562 c0 -5 -4 -10 -10 -10 -5 0 -10 5 -10 10 0 6 5 10 10 10 6 0 10 -4
10 -10z m-60 -60 c0 -5 -9 -10 -21 -10 -11 0 -17 5 -14 10 3 6 13 10 21 10 8
0 14 -4 14 -10z m-20 -35 c0 -9 -105 -65 -122 -65 -29 0 -21 18 20 44 32 21
102 36 102 21z m-155 -75 c-3 -5 -21 -10 -38 -10 -24 0 -28 3 -17 10 20 13 63
13 55 0z"/>
<path d="M8717 6784 c-12 -12 -8 -21 17 -37 26 -17 66 -12 66 8 0 7 -10 15
-22 18 -13 2 -30 7 -39 11 -8 4 -18 3 -22 0z"/>
<path d="M525 6680 c3 -5 13 -10 21 -10 8 0 14 5 14 10 0 6 -9 10 -21 10 -11
0 -17 -4 -14 -10z"/>
<path d="M32 6403 c-31 -4 -32 -6 -32 -47 l0 -43 63 2 c78 3 77 3 77 15 0 11
-64 81 -71 78 -2 0 -19 -3 -37 -5z"/>
<path d="M407 6333 c-13 -12 -7 -43 8 -43 8 0 20 -10 26 -22 16 -30 27 -37 50
-31 23 6 24 16 4 33 -8 7 -15 9 -15 5 0 -4 -7 -2 -16 6 -8 7 -13 21 -11 30 6
22 -30 39 -46 22z"/>
<path d="M150 6275 c7 -9 15 -13 17 -11 7 7 -7 26 -19 26 -6 0 -6 -6 2 -15z"/>
<path d="M535 6250 c-7 -12 2 -30 16 -30 5 0 9 9 9 20 0 21 -15 27 -25 10z"/>
<path d="M160 6224 c0 -14 3 -14 15 -4 8 7 15 14 15 16 0 2 -7 4 -15 4 -8 0
-15 -7 -15 -16z"/>
<path d="M200 6235 c0 -2 9 -9 20 -15 16 -9 20 -8 20 5 0 8 -9 15 -20 15 -11
0 -20 -2 -20 -5z"/>
<path d="M255 6228 c-9 -22 4 -43 17 -30 7 7 7 16 0 29 -10 17 -11 17 -17 1z"/>
<path d="M309 6230 c-5 -28 -2 -33 19 -36 12 -2 22 0 22 5 0 5 3 16 6 25 5 12
0 16 -20 16 -14 0 -27 -4 -27 -10z"/>
<path d="M560 6181 c0 -13 -7 -21 -17 -21 -13 0 -14 -3 -6 -11 7 -7 19 -9 27
-6 18 7 22 42 6 52 -5 3 -10 -3 -10 -14z"/>
<path d="M371 6100 c1 -72 15 -88 59 -70 33 14 36 20 18 38 -9 9 -7 12 9 12
12 0 24 -6 26 -12 8 -20 26 10 20 33 -6 23 -11 24 -35 3 -17 -16 -19 -15 -33
20 -12 27 -21 36 -40 36 -23 0 -25 -3 -24 -60z"/>
<path d="M71 6114 c-25 -26 -25 -26 -8 -74 21 -58 22 -77 5 -62 -10 7 -21 4
-40 -13 -23 -20 -28 -32 -28 -70 0 -58 12 -63 143 -57 l99 5 -3 -45 c-2 -24 1
-49 5 -56 10 -17 43 -15 50 3 4 11 -2 15 -21 15 -26 0 -26 0 -19 61 3 34 6 70
6 80 0 23 25 25 34 4 9 -24 41 -17 63 14 33 44 -1 67 -57 38 -30 -16 -89 -26
-107 -20 -18 7 -16 40 3 47 8 3 25 1 36 -5 26 -14 30 -8 32 38 1 32 -2 38 -21
41 -13 2 -23 8 -23 13 0 18 -27 9 -45 -15 -10 -13 -24 -22 -30 -19 -19 7 -33
47 -28 76 7 35 -14 35 -46 1z m62 -192 c-2 -13 4 -25 12 -28 19 -8 19 -20 0
-27 -8 -4 -28 6 -44 20 -24 22 -28 30 -20 45 15 28 55 20 52 -10z"/>
<path d="M615 6100 c-3 -5 -4 -14 -1 -19 6 -10 -37 -67 -67 -90 -49 -36 -36
-99 24 -120 16 -5 29 -13 29 -16 0 -15 -30 -35 -52 -35 -13 0 -30 -5 -38 -10
-13 -9 -13 -11 0 -20 8 -5 23 -10 33 -10 9 0 17 -4 17 -10 0 -5 5 -10 10 -10
6 0 10 13 10 29 l0 29 79 -1 c68 -2 82 1 103 19 12 12 37 29 53 37 l30 15 -25
10 c-15 6 -53 6 -95 1 -38 -4 -81 -9 -95 -11 -21 -3 -26 2 -28 26 -2 15 1 40
8 55 9 23 17 27 55 29 30 1 45 -3 45 -11 0 -8 4 -7 10 3 5 8 12 11 16 7 4 -3
2 -13 -4 -20 -9 -11 -7 -18 11 -34 31 -29 76 -27 83 2 7 28 -21 85 -41 85 -9
0 -21 11 -27 25 -11 24 -19 29 -44 26 -6 -1 -17 6 -24 14 -14 17 -65 20 -75 5z"/>
<path d="M1355 5920 c4 -6 11 -8 16 -5 14 9 11 15 -7 15 -8 0 -12 -5 -9 -10z"/>
<path d="M430 5880 c0 -5 9 -10 20 -10 11 0 20 5 20 10 0 6 -9 10 -20 10 -11
0 -20 -4 -20 -10z"/>
<path d="M889 5813 c-27 -52 -51 -73 -85 -73 -18 0 -35 -4 -38 -9 -7 -11 18
-21 54 -21 19 0 35 -9 48 -25 15 -18 29 -25 56 -25 20 0 36 5 36 10 0 6 -5 10
-11 10 -6 0 -9 21 -8 53 2 52 -13 107 -29 107 -5 0 -15 -12 -23 -27z"/>
<path d="M427 5773 c-11 -10 -8 -41 4 -49 17 -10 32 12 24 35 -6 21 -16 26
-28 14z"/>
<path d="M168 5748 c9 -9 15 -9 24 0 9 9 7 12 -12 12 -19 0 -21 -3 -12 -12z"/>
<path d="M13 5733 c-19 -7 -16 -27 7 -48 11 -10 20 -26 20 -36 0 -21 38 -42
111 -60 57 -15 112 -58 124 -97 8 -29 40 -45 94 -49 52 -3 67 7 76 48 4 16 10
29 15 29 5 0 11 8 13 18 4 14 5 14 6 1 1 -16 40 -39 66 -39 10 0 15 11 15 35
0 34 -1 35 -40 35 -37 0 -40 2 -40 28 -1 36 -41 66 -78 58 -16 -4 -39 0 -56 9
-39 21 -46 19 -33 -10 7 -14 17 -25 23 -25 7 0 14 -7 18 -15 3 -8 11 -15 18
-15 7 0 22 -13 32 -27 17 -22 17 -26 3 -20 -9 3 -19 2 -22 -3 -11 -18 -36 -10
-67 20 -16 17 -40 30 -54 30 -13 0 -24 5 -24 10 0 6 -7 10 -15 10 -8 0 -15 7
-15 15 0 9 -11 21 -25 27 -14 6 -25 15 -25 20 0 4 -7 8 -15 8 -8 0 -25 11 -37
25 -21 24 -62 32 -95 18z"/>
<path d="M8844 5729 c-6 -11 24 -31 36 -24 18 11 11 31 -11 31 -11 0 -22 -3
-25 -7z"/>
<path d="M7057 5723 c-4 -3 -7 -11 -7 -17 0 -6 5 -5 12 2 6 6 9 14 7 17 -3 3
-9 2 -12 -2z"/>
<path d="M640 5690 c0 -5 5 -10 10 -10 6 0 10 5 10 10 0 6 -4 10 -10 10 -5 0
-10 -4 -10 -10z"/>
<path d="M8896 5679 c-32 -25 -33 -51 -5 -91 31 -43 -2 -64 -68 -43 -18 6 -23
3 -23 -11 0 -10 -10 -38 -22 -62 -20 -42 -20 -47 -6 -76 12 -22 15 -58 14
-129 -1 -54 2 -101 6 -103 5 -3 8 -16 8 -30 0 -29 21 -54 44 -54 9 0 16 -8 16
-20 0 -11 6 -20 13 -20 6 0 -7 -9 -30 -21 -28 -14 -43 -28 -43 -40 0 -30 85
-27 112 4 l19 22 -5 -34 c-3 -18 -6 -39 -6 -45 0 -7 -9 -22 -20 -34 -25 -26
-6 -30 29 -6 15 11 26 13 33 6 13 -13 2 -32 -18 -32 -8 0 -14 -4 -14 -10 0 -5
7 -10 15 -10 8 0 15 -4 15 -9 0 -5 6 -16 13 -23 38 -40 46 -94 17 -108 -42
-20 -85 -29 -94 -20 -15 15 -36 -40 -23 -62 6 -9 17 -14 24 -11 19 7 16 33 -4
33 -13 0 -14 3 -6 11 9 9 16 8 27 -3 8 -9 12 -18 9 -22 -3 -3 0 -12 6 -20 10
-12 9 -17 -8 -28 -12 -7 -21 -23 -21 -35 0 -18 6 -23 26 -23 14 0 33 -4 43 -9
13 -7 17 -5 18 7 1 10 2 22 4 27 1 6 -1 18 -6 29 -5 12 -3 21 6 27 19 12 49
11 49 -2 0 -5 5 -7 10 -4 6 3 10 -3 10 -15 0 -12 -4 -18 -10 -15 -5 3 -10 1
-10 -5 0 -7 16 -9 44 -5 33 4 45 1 50 -10 9 -23 26 -18 26 9 0 26 -22 40 -58
37 l-23 -3 20 41 c30 57 24 104 -14 136 -18 14 -38 92 -38 148 0 26 -3 47 -7
47 -12 0 -30 50 -30 83 -1 18 -7 43 -15 57 -8 14 -14 37 -15 53 0 15 -4 27 -9
27 -15 0 -19 24 -11 75 8 56 4 75 -16 75 -22 0 -40 46 -25 64 7 8 19 12 27 9
8 -3 20 0 28 6 10 8 16 8 26 -4 7 -8 19 -15 26 -15 8 0 14 -5 14 -11 0 -6 10
-9 23 -7 14 2 21 9 21 21 -2 25 -46 86 -66 93 -10 3 -20 20 -24 39 -3 19 -12
39 -20 46 -8 7 -14 30 -14 58 0 42 -12 71 -31 71 -3 0 -18 -9 -33 -21z"/>
<path d="M865 5610 c-3 -5 -1 -10 4 -10 6 0 11 5 11 10 0 6 -2 10 -4 10 -3 0
-8 -4 -11 -10z"/>
<path d="M738 5556 c-14 -10 -16 -22 -9 -70 4 -31 4 -59 -1 -62 -4 -3 -8 -17
-8 -32 0 -20 3 -23 12 -14 16 16 43 15 58 -3 18 -21 63 -19 77 4 16 25 1 38
-47 43 l-35 3 -5 62 c-6 70 -16 88 -42 69z"/>
<path d="M56 5524 c-9 -23 -8 -24 12 -24 21 1 54 25 45 33 -12 13 -51 7 -57
-9z"/>
<path d="M1296 5503 l-19 -26 28 -25 29 -25 -22 -18 c-13 -10 -29 -16 -36 -13
-25 9 -26 -13 -2 -26 15 -7 22 -19 19 -29 -6 -23 20 -43 49 -39 22 3 23 6 23
113 l0 110 -25 2 c-17 2 -31 -5 -44 -24z"/>
<path d="M1112 5460 c-7 -11 -8 -20 -3 -20 9 0 24 30 18 36 -1 2 -8 -6 -15
-16z"/>
<path d="M7407 5446 c-38 -31 -36 -49 6 -41 42 10 47 13 47 35 0 27 -22 30
-53 6z"/>
<path d="M500 5445 c-14 -8 -42 -14 -62 -15 -28 0 -38 -4 -38 -16 0 -12 6 -15
25 -10 14 4 45 9 70 13 l45 6 0 -32 c0 -17 5 -31 10 -31 15 0 12 57 -2 64 -10
5 -10 7 0 12 6 3 12 10 12 15 0 13 -31 10 -60 -6z"/>
<path d="M9245 5401 c-5 -17 1 -43 24 -96 5 -11 34 -83 66 -160 32 -77 65
-156 73 -175 23 -55 131 -233 180 -297 24 -32 64 -89 89 -127 50 -75 101 -130
231 -246 94 -85 249 -257 304 -340 20 -30 89 -108 152 -172 64 -65 127 -136
141 -158 21 -34 64 -79 207 -218 16 -15 41 -43 58 -62 l29 -35 1 148 c0 114
-3 147 -13 147 -7 0 -32 20 -56 44 -25 25 -55 46 -69 48 -14 2 -28 9 -30 17
-3 8 0 11 7 7 6 -4 11 -4 11 1 -1 27 -51 58 -68 41 -17 -17 -39 6 -46 50 -8
55 -31 82 -70 82 -44 0 -93 51 -105 110 -18 86 -21 95 -41 122 -10 14 -32 53
-48 85 -36 74 -74 134 -115 181 -45 52 -83 104 -152 206 -60 89 -141 184 -245
286 -31 30 -67 71 -80 90 -13 19 -57 69 -99 111 -42 42 -101 109 -131 148
-119 157 -189 212 -205 162z"/>
<path d="M640 5381 c0 -11 -8 -22 -17 -24 -10 -3 0 -5 22 -5 22 0 34 2 28 5
-7 2 -13 11 -13 18 0 8 -4 17 -10 20 -5 3 -10 -3 -10 -14z"/>
<path d="M200 5360 c-50 -21 -116 -26 -122 -9 -2 7 -17 8 -41 4 -34 -7 -37
-10 -37 -41 0 -37 15 -43 51 -21 17 10 23 10 26 0 7 -19 97 -17 113 2 7 8 19
15 26 15 8 0 25 10 39 22 19 16 22 24 14 35 -14 16 -14 16 -69 -7z"/>
<path d="M395 5360 c-3 -6 1 -7 9 -4 18 7 21 14 7 14 -6 0 -13 -4 -16 -10z"/>
<path d="M1265 5350 c3 -5 8 -10 11 -10 2 0 4 5 4 10 0 6 -5 10 -11 10 -5 0
-7 -4 -4 -10z"/>
<path d="M556 5325 c4 -8 10 -12 15 -9 11 6 2 24 -11 24 -5 0 -7 -7 -4 -15z"/>
<path d="M5660 5324 c-25 -8 -52 -16 -60 -18 -17 -3 -56 -74 -45 -84 3 -4 25
4 48 16 l42 23 24 -27 23 -28 -34 -12 c-51 -18 -99 -52 -133 -95 -23 -28 -39
-38 -65 -41 -19 -2 -35 -8 -35 -15 0 -22 -15 -26 -30 -7 -14 18 -15 17 -13
-11 2 -47 -10 -72 -45 -88 -50 -25 -62 -6 -63 98 -1 124 -22 149 -139 163 -58
7 -60 8 -63 38 l-3 32 -67 -5 c-130 -8 -151 -17 -135 -59 14 -36 87 -95 157
-127 61 -28 133 -94 167 -155 18 -31 37 -61 43 -67 25 -21 66 -83 66 -98 0 -8
8 -23 17 -33 28 -27 22 -123 -9 -166 -14 -18 -35 -55 -47 -81 -12 -26 -26 -45
-31 -42 -6 3 -10 -3 -10 -14 0 -20 3 -22 78 -37 12 -2 22 -11 22 -20 0 -22 25
-27 57 -11 17 9 55 15 94 14 36 0 71 3 77 7 21 12 13 25 -19 34 -29 7 -34 14
-48 67 -9 33 -24 72 -34 87 -15 22 -18 39 -13 85 2 32 5 61 5 65 1 4 27 38 60
76 32 37 62 82 65 99 7 32 95 119 227 224 70 57 82 71 77 97 -3 14 -16 17 -85
17 -103 0 -118 12 -72 53 29 26 32 32 20 46 -16 19 -13 19 -71 0z"/>
<path d="M9040 5297 c0 -9 -4 -17 -10 -17 -5 0 -7 -7 -4 -15 4 -8 12 -15 20
-15 12 0 34 -29 34 -44 0 -3 -9 -6 -20 -6 -19 0 -18 -3 10 -42 16 -22 30 -49
30 -60 0 -10 5 -18 10 -18 21 0 60 -49 60 -75 0 -16 6 -25 15 -25 9 0 15 -9
15 -24 0 -13 6 -29 14 -35 11 -9 16 -5 25 26 10 35 10 32 7 -32 -1 -38 -1 -62
1 -52 3 9 9 17 15 17 17 0 -1 148 -24 189 -11 20 -24 40 -29 46 -5 5 -9 14 -9
21 0 7 -16 29 -35 48 -19 20 -35 41 -35 46 0 5 -6 7 -14 4 -9 -3 -19 4 -27 17
-6 13 -20 32 -30 43 -17 17 -19 18 -19 3z"/>
<path d="M874 5287 c-8 -9 1 -12 36 -12 39 0 44 2 31 12 -20 16 -53 16 -67 0z"/>
<path d="M1315 5210 c-14 -44 39 -68 63 -29 10 16 10 24 1 35 -18 21 -57 18
-64 -6z"/>
<path d="M854 5193 c-3 -10 -10 -28 -15 -41 -12 -32 -12 -32 16 -32 16 0 25
-6 25 -15 0 -8 9 -15 19 -15 10 0 29 -9 42 -20 20 -16 22 -21 9 -29 -11 -8
-12 -14 -3 -33 6 -13 14 -30 16 -38 3 -8 6 6 6 32 1 46 33 118 52 118 5 0 9 6
9 14 0 15 -37 35 -113 60 -59 20 -56 20 -63 -1z"/>
<path d="M560 5190 c0 -5 18 -10 40 -10 22 0 40 5 40 10 0 6 -18 10 -40 10
-22 0 -40 -4 -40 -10z"/>
<path d="M1333 5138 c-4 -7 -8 -17 -8 -23 0 -16 -47 -35 -86 -35 -44 0 -56
-25 -29 -61 13 -17 22 -20 32 -13 23 17 108 16 135 -1 19 -13 27 -14 39 -4 21
18 17 36 -15 65 -17 15 -33 39 -36 55 -7 31 -19 37 -32 17z"/>
<path d="M690 5131 c0 -5 7 -11 15 -15 9 -3 15 0 15 9 0 8 -7 15 -15 15 -8 0
-15 -4 -15 -9z"/>
<path d="M1040 5130 c0 -6 7 -10 15 -10 8 0 15 2 15 4 0 2 -7 6 -15 10 -8 3
-15 1 -15 -4z"/>
<path d="M0 5074 l0 -46 31 6 c17 3 35 6 40 6 5 0 9 7 9 15 0 8 7 15 15 15 8
0 15 5 15 10 0 6 -7 10 -15 10 -8 0 -15 -4 -15 -10 0 -20 -31 -9 -42 15 -19
42 -38 31 -38 -21z"/>
<path d="M160 5080 c0 -5 5 -10 11 -10 5 0 7 5 4 10 -3 6 -8 10 -11 10 -2 0
-4 -4 -4 -10z"/>
<path d="M596 5063 c-11 -11 -6 -23 9 -23 8 0 15 4 15 9 0 13 -16 22 -24 14z"/>
<path d="M320 5034 c0 -8 5 -12 10 -9 6 3 10 10 10 16 0 5 -4 9 -10 9 -5 0
-10 -7 -10 -16z"/>
<path d="M656 5021 c-4 -6 -12 -9 -17 -6 -5 4 -9 -4 -9 -16 0 -12 3 -19 7 -16
3 4 12 2 19 -4 10 -9 15 -7 20 4 7 20 -10 54 -20 38z"/>
<path d="M710 4935 c-6 -8 -9 -23 -5 -34 6 -20 8 -20 36 -6 34 18 37 30 10 45
-25 13 -26 13 -41 -5z"/>
<path d="M800 4925 c0 -5 18 -21 40 -35 66 -40 51 -99 -22 -87 -12 2 -17 2
-10 0 15 -5 15 -8 0 -50 -14 -39 -23 -41 -53 -9 l-23 25 -53 -20 c-30 -10 -55
-19 -57 -19 -2 0 4 -8 14 -17 10 -11 35 -18 68 -19 28 -1 63 -7 79 -13 32 -12
74 0 84 25 5 13 7 13 14 2 7 -10 9 -10 9 0 0 14 47 16 52 2 2 -7 13 -7 34 0
36 13 57 48 42 73 -7 13 -5 17 7 17 8 0 15 6 15 13 0 8 10 13 21 13 12 -1 24
5 26 12 6 16 -50 10 -71 -7 -8 -7 -24 -10 -36 -6 -22 7 -26 20 -10 30 15 10
12 25 -6 25 -8 0 -30 11 -47 24 -33 25 -117 40 -117 21z m100 -35 c0 -5 -4
-10 -10 -10 -5 0 -10 5 -10 10 0 6 5 10 10 10 6 0 10 -4 10 -10z"/>
<path d="M655 4890 c-3 -5 -1 -10 4 -10 6 0 11 5 11 10 0 6 -2 10 -4 10 -3 0
-8 -4 -11 -10z"/>
<path d="M8800 4868 c0 -19 2 -20 10 -8 13 19 13 30 0 30 -5 0 -10 -10 -10
-22z"/>
<path d="M296 4872 c-8 -14 30 -41 45 -32 10 7 10 11 0 24 -14 17 -37 21 -45
8z"/>
<path d="M798 4873 c7 -3 16 -2 19 1 4 3 -2 6 -13 5 -11 0 -14 -3 -6 -6z"/>
<path d="M0 4815 c0 -8 5 -15 10 -15 6 0 10 7 10 15 0 8 -4 15 -10 15 -5 0
-10 -7 -10 -15z"/>
<path d="M8865 4814 c-13 -14 -21 -15 -41 -5 -33 14 -37 14 -31 -4 4 -8 2 -17
-3 -20 -5 -3 -7 -12 -4 -20 4 -11 12 -12 32 -4 14 5 31 8 39 5 18 -7 68 38 59
52 -10 17 -32 15 -51 -4z"/>
<path d="M8960 4759 c0 -5 5 -7 10 -4 6 3 10 8 10 11 0 2 -4 4 -10 4 -5 0 -10
-5 -10 -11z"/>
<path d="M160 4746 c0 -17 21 -79 30 -89 3 -4 39 -10 79 -13 64 -5 79 -2 127
20 60 29 68 46 26 62 -22 9 -33 8 -47 -2 -21 -16 -99 -12 -120 6 -10 8 -14 8
-17 -1 -3 -9 -11 -6 -26 9 -25 25 -52 29 -52 8z"/>
<path d="M520 4750 c0 -5 5 -10 11 -10 5 0 7 5 4 10 -3 6 -8 10 -11 10 -2 0
-4 -4 -4 -10z"/>
<path d="M1121 4734 c0 -11 3 -14 6 -6 3 7 2 16 -1 19 -3 4 -6 -2 -5 -13z"/>
<path d="M37 4717 c-34 -19 -37 -25 -37 -64 0 -24 2 -43 4 -43 20 0 66 25 70
38 13 46 16 81 9 85 -5 3 -25 -4 -46 -16z"/>
<path d="M560 4710 c0 -5 4 -10 9 -10 6 0 13 5 16 10 3 6 -1 10 -9 10 -9 0
-16 -4 -16 -10z"/>
<path d="M515 4570 c-3 -5 -1 -10 4 -10 6 0 11 5 11 10 0 6 -2 10 -4 10 -3 0
-8 -4 -11 -10z"/>
<path d="M1010 4570 c-12 -8 -11 -10 8 -10 13 0 22 -6 22 -16 0 -9 6 -14 13
-11 6 2 12 12 12 23 0 22 -31 30 -55 14z"/>
<path d="M1444 4566 c-17 -9 -19 -16 -13 -34 11 -29 15 -28 34 7 17 34 10 43
-21 27z"/>
<path d="M695 4540 c-17 -18 -16 -20 9 -31 39 -18 58 3 29 30 -21 20 -21 20
-38 1z"/>
<path d="M1100 4518 c0 -38 -4 -42 -46 -39 -12 1 -37 -7 -56 -19 -29 -17 -37
-29 -47 -75 -10 -46 -10 -57 2 -69 13 -13 18 -10 46 21 28 32 35 35 69 30 20
-4 44 -15 52 -25 9 -10 22 -22 30 -25 11 -4 9 -7 -7 -12 -13 -4 -23 -11 -23
-15 0 -4 -18 -13 -40 -20 -22 -7 -40 -18 -40 -23 0 -5 -17 -7 -40 -4 -39 5
-40 4 -40 -25 l0 -30 118 7 c144 8 155 11 147 36 -4 11 -1 27 7 36 8 10 13 44
14 86 0 53 4 73 17 82 10 7 17 26 17 44 0 26 -6 34 -37 49 -21 9 -41 20 -44
25 -3 4 -26 7 -52 6 l-47 -2 0 -39z"/>
<path d="M8538 4513 c-21 -5 -29 -26 -17 -44 6 -11 11 -11 21 -1 20 20 43 14
61 -17 16 -28 16 -43 1 -118 -3 -17 3 -26 25 -38 17 -8 39 -15 51 -15 11 0 20
-5 20 -11 0 -16 -150 -4 -193 15 -49 21 -116 35 -123 25 -8 -14 35 -69 55 -69
22 0 41 -19 41 -43 0 -10 10 -32 21 -49 l21 -29 -21 -6 c-11 -3 -21 -12 -21
-19 0 -9 -11 -14 -30 -14 -28 0 -30 -2 -24 -27 10 -42 36 -65 101 -91 36 -14
63 -32 68 -45 6 -11 36 -36 67 -54 32 -19 69 -44 81 -56 13 -12 38 -33 55 -46
18 -13 32 -29 32 -37 0 -18 62 -64 86 -64 11 0 25 -9 31 -19 8 -12 33 -24 70
-31 65 -14 83 -24 83 -51 0 -10 9 -21 20 -24 11 -3 20 -10 20 -14 0 -4 14 -17
30 -30 29 -21 32 -21 65 -6 32 16 36 16 64 -1 26 -15 33 -16 55 -4 22 11 33
11 77 -3 70 -23 103 -21 153 8 50 29 75 26 68 -10 -3 -16 -17 -30 -43 -42 -36
-17 -38 -20 -37 -62 1 -40 4 -45 37 -59 29 -12 44 -12 79 -3 51 13 83 14 114
2 13 -5 42 -15 66 -22 23 -7 42 -18 42 -25 0 -20 15 -25 48 -13 30 10 32 17
17 53 -8 19 -105 116 -116 116 -4 0 -23 16 -42 35 -19 19 -45 35 -57 35 -15 0
-25 9 -32 28 -6 16 -32 41 -64 61 -52 32 -54 35 -54 77 0 37 -10 57 -30 59
-31 4 -81 34 -95 57 -9 16 -39 39 -66 53 -28 13 -59 36 -71 50 -17 21 -27 26
-57 23 l-36 -3 -3 50 c-4 61 -15 75 -57 75 -26 0 -35 5 -44 29 -8 17 -29 36
-57 51 -38 19 -45 26 -39 44 3 11 9 38 12 59 4 29 2 37 -10 37 -9 0 -18 -4
-21 -9 -4 -5 -14 -8 -24 -6 -9 2 -21 4 -25 4 -5 1 -6 5 -3 9 2 4 1 14 -4 21
-6 11 -12 11 -31 -3 -32 -22 -144 -23 -153 -1 -6 17 2 45 14 45 6 0 30 52 30
66 0 14 -76 0 -99 -17 -38 -28 -73 -18 -69 19 2 21 9 27 28 29 14 0 32 1 41 2
9 1 24 13 34 27 22 35 5 54 -49 54 -43 1 -130 21 -142 33 -8 7 -18 7 -46 0z
m132 -109 c0 -2 -9 -4 -21 -4 -11 0 -18 4 -14 10 5 8 35 3 35 -6z m347 -279
c1 -5 -1 -17 -7 -25 -7 -12 -12 -12 -29 4 -12 11 -21 23 -21 28 0 12 53 6 57
-7z m-220 -81 c-3 -3 -12 -4 -19 -1 -8 3 -5 6 6 6 11 1 17 -2 13 -5z m413
-319 c20 -25 0 -57 -37 -60 -24 -2 -33 2 -37 18 -6 25 0 36 28 47 30 12 32 12
46 -5z m233 -15 c10 -12 29 -20 46 -20 17 0 33 -5 37 -12 5 -8 -2 -9 -26 -5
-18 4 -48 7 -66 7 -30 0 -34 3 -34 25 0 30 19 32 43 5z"/>
<path d="M1432 4440 c0 -14 2 -19 5 -12 2 6 2 18 0 25 -3 6 -5 1 -5 -13z"/>
<path d="M272 4398 c2 -6 13 -16 24 -22 10 -6 22 -15 26 -21 11 -16 19 1 13
27 -5 18 -14 24 -36 26 -20 2 -29 -2 -27 -10z"/>
<path d="M602 4402 c-10 -7 -10 -11 2 -22 18 -14 50 -6 44 13 -6 15 -29 20
-46 9z"/>
<path d="M710 4390 c0 -5 4 -10 9 -10 6 0 13 5 16 10 3 6 -1 10 -9 10 -9 0
-16 -4 -16 -10z"/>
<path d="M8851 4324 c-10 -12 -10 -19 -2 -27 8 -8 20 -7 46 7 19 10 32 23 29
27 -9 15 -58 9 -73 -7z"/>
<path d="M0 4314 c0 -14 3 -15 18 -3 9 7 19 15 21 16 2 2 -5 3 -17 3 -14 0
-22 -6 -22 -16z"/>
<path d="M705 4310 c-8 -14 3 -30 21 -30 8 0 14 9 14 20 0 21 -24 28 -35 10z"/>
<path d="M1360 4302 c0 -6 6 -12 14 -15 7 -3 16 -17 18 -31 4 -20 1 -26 -12
-26 -19 0 -30 -19 -30 -51 0 -27 -28 -36 -44 -14 -7 10 -22 16 -37 13 -19 -2
-27 -13 -38 -50 -9 -29 -21 -48 -33 -51 -13 -4 -18 -15 -18 -41 0 -20 -5 -36
-11 -36 -6 0 -9 6 -6 14 12 30 -40 49 -61 23 -11 -13 6 -51 32 -70 7 -5 5 -12
-6 -20 -9 -7 -16 -22 -15 -32 1 -13 -7 -23 -28 -30 -47 -16 -75 -50 -75 -90 0
-32 -2 -35 -30 -35 l-30 0 35 -50 c34 -49 38 -80 8 -80 -7 0 -21 15 -29 33 -9
19 -13 23 -11 10 3 -13 -3 -33 -14 -47 -18 -23 -18 -24 4 -39 16 -11 19 -18
11 -28 -6 -8 -11 -32 -11 -53 -1 -23 -7 -42 -16 -47 -9 -5 -13 -19 -11 -36 2
-16 1 -20 -2 -9 -9 31 -26 41 -69 45 -51 4 -57 8 -45 31 14 27 14 28 -27 49
-36 18 -42 18 -103 4 -122 -27 -119 -26 -65 -33 98 -12 160 -70 75 -70 -29 0
-40 -4 -40 -15 0 -11 -11 -15 -39 -15 -33 0 -40 -4 -45 -25 -5 -19 -13 -25
-35 -25 -16 0 -32 6 -34 13 -3 6 -6 0 -6 -15 -1 -27 -3 -28 -57 -28 -76 0 -91
10 -86 55 l4 37 49 -6 c42 -6 49 -4 59 14 9 16 8 25 -1 36 -18 21 -49 18 -49
-6 0 -16 -7 -20 -30 -20 -16 0 -30 -4 -30 -10 0 -5 -4 -10 -10 -10 -5 0 -10
10 -10 22 0 16 -3 19 -11 11 -9 -9 -16 -9 -30 0 -14 9 -21 9 -31 -1 -15 -15
-54 -16 -63 -2 -13 21 -25 9 -25 -25 0 -38 10 -42 54 -25 17 6 26 6 26 0 0 -6
18 -10 40 -10 27 0 40 -4 40 -14 0 -20 -25 -37 -43 -30 -8 3 -18 1 -22 -5 -3
-6 -26 -11 -51 -11 -40 0 -44 -2 -44 -25 0 -21 5 -25 28 -25 15 0 33 -5 40
-12 7 -7 12 -8 12 -3 0 4 9 0 20 -10 25 -23 60 -25 83 -6 12 10 36 14 76 12
34 -1 68 3 80 11 16 10 25 9 44 -1 19 -10 28 -10 44 0 22 13 57 8 87 -14 28
-21 29 -145 2 -176 -10 -11 -18 -31 -18 -45 0 -14 -7 -27 -14 -30 -8 -3 -14
-17 -14 -31 0 -22 -4 -25 -20 -20 -13 4 -20 2 -20 -8 0 -11 -13 -13 -57 -9
l-56 5 7 -64 c4 -35 6 -70 6 -76 -1 -7 -2 -31 -3 -53 -1 -22 -5 -40 -9 -40 -3
0 -12 -16 -18 -36 -7 -20 -22 -40 -36 -46 -31 -14 -34 -63 -4 -71 52 -13 -10
-62 -75 -59 -26 1 -47 -4 -54 -12 -10 -12 -5 -13 28 -9 27 4 46 0 62 -11 13
-9 32 -16 42 -16 16 0 18 -5 13 -31 -3 -17 -6 -35 -6 -40 0 -13 -38 -2 -69 20
-16 12 -41 21 -56 21 -14 0 -36 5 -47 11 -20 11 -21 10 -16 -62 l5 -74 -44 4
-43 3 0 -42 c0 -25 -4 -39 -10 -35 -6 4 -8 10 -5 15 3 5 -4 24 -15 42 -11 18
-20 48 -20 66 0 28 -3 32 -27 32 -27 1 -63 20 -63 34 0 3 9 6 20 6 16 0 20 7
20 30 0 27 -3 30 -30 30 l-30 0 0 -1240 0 -1240 373 0 374 0 -7 42 c-4 24 -32
93 -64 153 -56 106 -99 213 -115 285 -11 46 -22 72 -38 88 -17 17 -17 79 0 89
17 11 37 58 37 87 0 25 -36 118 -61 156 -13 19 -18 62 -23 186 -6 139 -4 180
15 295 19 117 20 144 10 214 -6 44 -17 98 -25 120 -39 111 -48 269 -20 347 7
22 14 53 14 69 0 16 5 29 10 29 6 0 10 7 10 15 0 8 15 43 32 77 20 37 34 80
34 103 1 22 7 72 13 110 6 39 11 105 11 147 0 42 5 100 11 130 27 135 29 138
107 215 42 40 83 73 93 73 27 0 97 39 118 65 14 19 19 48 24 132 5 103 37 257
58 277 5 6 9 17 9 26 0 8 11 27 24 42 14 14 22 29 19 32 -4 3 1 6 10 6 9 0 17
4 17 9 0 5 25 35 55 66 42 44 55 65 55 88 0 17 11 53 24 81 54 113 70 151 76
187 4 22 3 39 -1 39 -12 0 -11 37 1 45 6 3 10 -3 10 -14 0 -32 19 -34 43 -5
12 14 39 46 60 70 32 36 37 46 28 63 -6 11 -10 30 -8 43 2 18 -3 24 -25 26
-16 2 -28 -1 -28 -6z m-192 -461 c-2 -9 -10 -16 -18 -16 -8 0 -18 -4 -22 -10
-4 -5 -8 1 -8 15 0 20 5 25 26 26 18 2 24 -2 22 -15z m-78 -112 c0 -5 -7 -9
-15 -9 -15 0 -20 12 -9 23 8 8 24 -1 24 -14z m-239 -404 c6 -69 -1 -105 -22
-105 -6 0 -9 27 -8 73 2 39 -1 80 -6 91 -6 14 -4 17 11 14 16 -3 20 -15 25
-73z m36 -17 c-2 -18 -4 -4 -4 32 0 36 2 50 4 33 2 -18 2 -48 0 -65z m-70
-175 c-2 -16 -4 -5 -4 22 0 28 2 40 4 28 2 -13 2 -35 0 -50z m40 5 c-2 -13 -4
-3 -4 22 0 25 2 35 4 23 2 -13 2 -33 0 -45z m-560 -890 c-3 -8 -6 -5 -6 6 -1
11 2 17 5 13 3 -3 4 -12 1 -19z m53 -74 c0 -8 -7 -14 -15 -14 -15 0 -21 21 -9
33 10 9 24 -2 24 -19z m-76 -1608 c11 -46 0 -55 -67 -52 -50 3 -62 7 -62 20 0
9 3 16 7 16 4 1 27 9 50 20 57 25 65 24 72 -4z"/>
<path d="M8985 4290 c-3 -5 -1 -10 4 -10 6 0 11 5 11 10 0 6 -2 10 -4 10 -3 0
-8 -4 -11 -10z"/>
<path d="M903 4277 c-25 -11 -31 -37 -9 -37 8 0 16 -6 19 -12 8 -22 19 -1 15
30 -3 26 -5 28 -25 19z"/>
<path d="M670 4210 c-13 -9 -13 -11 0 -20 8 -5 23 -10 32 -10 9 0 18 -6 21
-12 3 -9 7 -7 12 5 16 39 -25 63 -65 37z"/>
<path d="M0 4084 l0 -86 31 26 c17 14 34 26 39 26 11 0 19 36 14 58 -5 16 -61
62 -77 62 -4 0 -7 -39 -7 -86z"/>
<path d="M960 4145 c0 -11 -7 -14 -23 -10 -25 7 -77 -9 -77 -24 0 -5 9 -11 20
-14 20 -5 29 -37 10 -37 -5 0 -10 -9 -10 -20 0 -17 -7 -20 -40 -20 -34 0 -40
-3 -40 -21 0 -18 4 -20 33 -14 63 13 67 15 67 46 0 27 2 29 40 29 22 0 40 5
40 10 0 6 16 10 35 10 34 0 35 1 35 40 l0 40 -45 0 c-34 0 -45 -4 -45 -15z m0
-55 c0 -5 -5 -10 -11 -10 -5 0 -7 5 -4 10 3 6 8 10 11 10 2 0 4 -4 4 -10z"/>
<path d="M720 4136 c0 -8 -8 -17 -18 -20 -9 -3 -23 -15 -30 -27 -13 -20 -12
-21 30 -14 24 4 48 12 55 17 7 6 19 5 32 -4 18 -11 23 -10 35 7 20 28 2 48
-35 40 -15 -4 -37 -1 -48 5 -17 8 -21 8 -21 -4z"/>
<path d="M571 4121 c-12 -8 -12 -12 -2 -25 8 -9 19 -16 26 -16 18 0 26 25 12
39 -13 13 -18 13 -36 2z"/>
<path d="M1034 4007 c4 -22 9 -44 12 -49 10 -17 24 -7 24 17 0 16 -6 25 -15
25 -8 0 -15 5 -15 10 0 6 3 9 8 9 20 -3 33 2 30 14 -3 6 -15 13 -27 13 -21 1
-23 -2 -17 -39z"/>
<path d="M673 4003 c10 -3 16 -11 13 -18 -6 -18 25 -29 36 -13 4 7 8 16 8 19
0 8 -39 19 -60 18 -10 -1 -9 -3 3 -6z"/>
<path d="M403 3960 c0 -25 2 -35 4 -22 2 12 2 32 0 45 -2 12 -4 2 -4 -23z"/>
<path d="M8397 3844 c-3 -3 -2 -16 2 -28 5 -11 7 -36 6 -55 -2 -40 14 -92 38
-115 9 -10 17 -24 17 -32 0 -10 13 -14 45 -14 53 0 95 17 88 36 -7 20 24 29
53 15 19 -8 25 -18 22 -35 -3 -26 26 -66 48 -66 19 0 34 -33 34 -74 0 -25 6
-38 20 -46 17 -9 24 -5 48 21 25 29 31 30 52 19 12 -7 38 -10 56 -7 24 4 34 1
39 -10 7 -19 -11 -33 -40 -33 -29 0 -45 -19 -45 -51 0 -20 -6 -28 -25 -33 -26
-7 -33 -30 -13 -42 6 -4 51 -8 100 -9 81 -1 90 -3 116 -28 38 -37 59 -35 64 6
3 17 8 40 13 50 5 12 3 17 -7 17 -19 0 -54 38 -67 72 -6 15 -27 36 -48 47 -21
11 -54 35 -73 53 -19 19 -51 45 -70 58 -19 13 -41 32 -48 41 -6 10 -26 20 -42
24 -47 10 -87 34 -93 54 -4 18 -126 91 -151 91 -7 0 -21 9 -31 20 -10 11 -28
20 -41 20 -13 0 -32 9 -42 20 -10 11 -21 17 -25 14z"/>
<path d="M540 3793 c-8 -3 -18 -11 -22 -17 -14 -21 15 -36 68 -36 47 0 54 -2
54 -20 0 -17 -7 -20 -40 -20 -22 0 -40 -3 -40 -7 0 -10 -49 -33 -67 -33 -7 0
-22 6 -33 12 -16 10 -24 10 -40 0 -26 -16 -97 -16 -103 1 -3 6 -5 -8 -5 -33 0
-25 2 -39 5 -32 6 14 89 17 98 2 9 -15 41 -12 55 4 16 20 221 16 245 -4 20
-16 19 -17 43 55 26 77 15 99 -53 110 -26 3 -49 4 -52 1 -3 -3 -12 1 -20 9
-14 15 -64 19 -93 8z"/>
<path d="M810 3745 c-15 -19 -6 -41 24 -59 13 -9 20 -7 31 7 29 40 -24 90 -55
52z"/>
<path d="M8615 3630 c-7 -12 2 -30 16 -30 5 0 9 9 9 20 0 21 -15 27 -25 10z"/>
<path d="M1666 3513 c-9 -22 10 -41 25 -26 13 13 5 43 -10 43 -5 0 -12 -8 -15
-17z"/>
<path d="M8505 3483 c-43 -6 -76 -52 -37 -54 27 -1 76 -33 87 -57 9 -20 28
-32 23 -14 -2 4 3 22 11 40 13 30 12 36 -6 60 -21 29 -31 32 -78 25z"/>
<path d="M8640 3421 c0 -12 29 -23 41 -15 5 3 7 10 4 15 -8 12 -45 12 -45 0z"/>
<path d="M0 3215 c0 -34 1 -35 40 -35 48 0 50 10 9 44 -40 34 -49 33 -49 -9z"/>
<path d="M9400 3241 c0 -5 -18 -12 -40 -16 -32 -5 -40 -11 -40 -28 0 -12 4
-29 9 -36 8 -12 11 -10 16 10 3 13 18 30 33 37 24 11 28 10 44 -10 20 -26 23
-59 7 -75 -17 -17 -6 -57 21 -70 14 -7 18 -13 10 -13 -15 0 -50 -59 -50 -84 0
-32 26 -38 92 -22 47 12 72 14 98 6 27 -8 38 -7 48 4 18 18 7 36 -22 36 -12 0
-37 11 -56 25 -19 14 -47 25 -63 25 -24 0 -28 3 -22 18 18 41 16 59 -8 88 -25
29 -25 30 -6 53 23 28 24 47 3 55 -24 9 -74 7 -74 -3z"/>
<path d="M9252 3232 c-8 -6 -2 -9 17 -9 17 0 28 4 25 9 -7 10 -25 10 -42 0z"/>
<path d="M9220 3206 c0 -2 7 -7 16 -10 8 -3 12 -2 9 4 -6 10 -25 14 -25 6z"/>
<path d="M100 3160 c0 -33 3 -40 20 -40 17 0 20 7 20 40 0 33 -3 40 -20 40
-17 0 -20 -7 -20 -40z"/>
<path d="M8658 3186 c-24 -18 -22 -28 4 -24 13 2 24 11 26 21 4 20 -6 21 -30
3z"/>
<path d="M1540 3149 c0 -11 4 -18 10 -14 5 3 7 12 3 20 -7 21 -13 19 -13 -6z"/>
<path d="M9627 3144 c-14 -14 -6 -24 19 -24 16 0 24 5 22 13 -5 14 -31 21 -41
11z"/>
<path d="M285 3125 c-20 -15 -20 -15 4 -35 22 -19 26 -19 40 -5 12 11 13 20 5
32 -15 24 -27 26 -49 8z"/>
<path d="M9060 3115 c0 -14 -11 -38 -25 -53 -34 -37 -15 -57 44 -47 40 7 45
12 42 48 -2 13 5 17 32 17 40 0 51 -8 36 -27 -9 -10 -7 -13 9 -13 12 0 27 -10
33 -22 l11 -21 19 24 c23 29 23 38 4 75 -14 29 -15 29 -81 24 -45 -4 -71 -2
-83 7 -26 20 -41 15 -41 -12z"/>
<path d="M9680 3130 c0 -5 7 -10 15 -10 8 0 15 5 15 10 0 6 -7 10 -15 10 -8 0
-15 -4 -15 -10z"/>
<path d="M9947 3133 c-4 -3 -7 -10 -7 -14 0 -9 71 -31 78 -24 8 8 -8 36 -17
30 -5 -3 -12 -1 -16 5 -7 11 -28 13 -38 3z"/>
<path d="M9331 3080 c-9 -29 -17 -40 -31 -40 -11 0 -20 -4 -20 -10 0 -5 9 -10
20 -10 10 0 28 -10 40 -22 l20 -22 0 72 c0 40 -4 72 -8 72 -5 0 -14 -18 -21
-40z"/>
<path d="M9646 3073 c-3 -3 -3 -10 0 -14 7 -12 34 -11 34 0 0 11 -26 22 -34
14z"/>
<path d="M10107 3066 c-9 -9 -20 -17 -24 -17 -20 -1 -10 -7 31 -19 28 -8 57
-25 76 -47 30 -33 31 -35 11 -40 -12 -3 -21 -11 -21 -18 0 -8 -17 -16 -40 -20
-24 -4 -44 -14 -50 -26 -7 -12 -21 -19 -41 -19 -16 0 -46 -7 -66 -15 -20 -9
-50 -13 -67 -10 -22 4 -39 -1 -56 -14 l-25 -20 21 -28 c17 -22 29 -28 55 -26
19 1 90 4 158 5 112 3 125 5 135 23 6 11 14 22 18 25 17 13 120 1 162 -19 41
-19 51 -30 47 -53 0 -5 3 -8 8 -8 5 0 16 -11 24 -24 15 -23 15 -26 -14 -62
-24 -30 -29 -46 -27 -78 l3 -41 -50 -3 c-52 -3 -99 -26 -93 -44 6 -16 47 -17
63 -1 15 14 39 18 31 4 -3 -5 1 -14 9 -21 8 -7 15 -22 15 -33 0 -25 44 -84 69
-92 10 -3 21 -15 24 -25 3 -12 14 -20 25 -20 12 0 24 -4 27 -10 10 -16 62 16
69 43 8 33 47 52 83 41 15 -5 45 -8 66 -6 l37 3 0 276 0 276 -22 -20 c-25 -23
-112 -43 -185 -43 -40 0 -48 5 -89 49 -27 29 -57 51 -74 55 -17 3 -30 10 -30
16 0 5 -20 30 -44 54 -39 38 -51 44 -103 49 -32 3 -74 9 -94 13 -26 4 -40 2
-52 -10z m450 -622 c-3 -3 -12 -4 -19 -1 -8 3 -5 6 6 6 11 1 17 -2 13 -5z"/>
<path d="M43 3063 c-40 -4 -43 -6 -43 -34 0 -27 2 -29 40 -29 33 0 40 -3 40
-20 0 -11 7 -20 15 -20 11 0 15 11 15 40 0 36 3 40 25 40 16 0 25 6 25 15 0
15 -19 17 -117 8z"/>
<path d="M9958 3033 c7 -3 16 -2 19 1 4 3 -2 6 -13 5 -11 0 -14 -3 -6 -6z"/>
<path d="M268 2988 c-16 -5 -28 -14 -28 -19 0 -5 -18 -9 -40 -9 -22 0 -40 -4
-40 -10 0 -5 17 -10 39 -10 42 0 108 -38 103 -60 -2 -7 -1 -19 2 -27 4 -10 11
-8 31 9 19 16 25 31 25 60 0 21 -4 38 -9 38 -5 0 -11 9 -14 20 -6 22 -26 24
-69 8z"/>
<path d="M80 2865 c0 -8 -4 -15 -9 -15 -5 0 -23 -12 -40 -26 -22 -18 -31 -35
-31 -55 0 -27 2 -29 40 -29 22 0 40 -4 40 -10 0 -17 17 -11 49 19 39 37 39 65
0 102 -35 32 -49 36 -49 14z"/>
<path d="M9519 2862 c-45 -22 -51 -57 -13 -65 28 -5 46 0 94 28 14 8 37 15 53
15 15 0 27 5 27 10 0 6 7 10 15 10 8 0 15 5 15 10 0 14 -107 13 -112 -1 -3 -9
-9 -9 -24 -1 -16 9 -29 7 -55 -6z"/>
<path d="M9737 2857 c-16 -11 -16 -14 -2 -35 9 -12 21 -20 26 -17 5 3 6 0 3
-8 -3 -8 2 -20 10 -27 13 -10 17 -10 22 3 19 49 -24 110 -59 84z"/>
<path d="M1392 2779 c2 -6 8 -10 13 -10 5 0 11 4 13 10 2 6 -4 11 -13 11 -9 0
-15 -5 -13 -11z"/>
<path d="M6404 2765 c-16 -41 23 -83 62 -68 20 7 18 69 -2 77 -27 11 -54 7
-60 -9z"/>
<path d="M9879 2702 c11 -21 -3 -42 -26 -42 -7 0 -13 -7 -13 -16 0 -11 -9 -6
-31 16 -36 35 -48 35 -69 -5 -13 -24 -13 -28 0 -33 8 -3 27 -18 42 -34 23 -25
33 -29 58 -23 22 5 32 14 36 33 4 15 17 36 30 47 31 27 23 75 -13 75 -20 0
-22 -3 -14 -18z"/>
<path d="M10392 2660 c0 -14 2 -19 5 -12 2 6 2 18 0 25 -3 6 -5 1 -5 -13z"/>
<path d="M3664 2376 c-3 -7 -4 -42 -2 -77 3 -60 5 -64 32 -74 24 -8 31 -6 47
14 12 15 19 39 19 67 0 39 -4 47 -32 64 -39 23 -57 25 -64 6z"/>
<path d="M10665 2300 c-4 -6 -1 -17 5 -25 15 -19 7 -22 -79 -28 -60 -5 -105
-27 -88 -43 4 -4 40 -8 81 -9 41 0 80 -6 88 -12 20 -16 66 -24 73 -13 11 17
22 2 20 -25 -2 -17 3 -29 16 -35 18 -10 19 -6 19 85 0 58 -4 95 -10 95 -17 0
-24 -31 -11 -52 23 -36 -22 -65 -50 -32 -11 14 -11 18 4 29 27 20 20 45 -18
61 -41 17 -42 17 -50 4z m33 -78 c2 -7 -3 -12 -12 -12 -9 0 -16 7 -16 16 0 17
22 14 28 -4z"/>
<path d="M1137 2255 c-7 -16 8 -29 23 -20 15 9 12 35 -4 35 -8 0 -16 -7 -19
-15z"/>
<path d="M10460 2084 c0 -18 17 -27 23 -12 3 8 9 2 15 -14 6 -14 21 -30 33
-33 13 -4 29 -14 37 -22 23 -22 79 -13 92 16 16 36 0 47 -49 33 -46 -14 -69
-8 -73 21 -2 17 -10 22 -40 23 -25 0 -38 -4 -38 -12z"/>
<path d="M3841 2005 c-20 -23 -39 -35 -56 -35 -14 0 -25 -4 -25 -9 0 -11 101
-101 112 -101 10 0 48 -75 48 -95 0 -8 9 -15 20 -15 18 0 20 4 14 40 -5 30 -2
48 15 75 11 20 21 43 21 51 0 25 -38 92 -62 108 -34 24 -53 20 -87 -19z"/>
<path d="M4170 2000 c-6 -11 -12 -53 -13 -93 l-2 -72 40 3 c58 5 78 29 79 95
0 32 -5 61 -13 71 -20 24 -78 21 -91 -4z"/>
<path d="M3028 1974 c-11 -11 -192 -34 -268 -34 -158 0 -256 -91 -312 -288
-74 -260 -78 -283 -79 -417 -1 -152 -3 -158 -58 -198 -62 -45 -76 -78 -96
-217 -13 -99 -14 -116 -1 -125 15 -11 50 -56 132 -170 28 -39 64 -84 80 -101
16 -17 44 -48 62 -70 18 -21 58 -57 89 -79 31 -22 64 -55 72 -73 12 -23 23
-32 43 -32 16 0 38 -12 56 -30 17 -16 37 -30 45 -30 8 0 38 -25 66 -55 l52
-55 423 0 422 0 18 50 c20 56 64 99 133 131 25 11 69 42 97 68 32 30 68 52 96
60 64 18 103 44 210 142 65 58 99 98 108 123 14 39 15 37 -33 102 -7 10 -4 29
8 61 32 84 32 83 3 83 -20 0 -26 5 -26 23 0 13 -5 28 -11 34 -7 7 -3 25 16 63
14 28 24 54 21 57 -7 8 -108 -17 -133 -33 -12 -8 -34 -14 -49 -14 -18 0 -47
-19 -96 -64 -39 -36 -97 -78 -128 -95 -53 -29 -65 -31 -158 -31 -92 0 -105 3
-174 34 -71 32 -79 39 -126 110 -57 85 -72 143 -53 207 7 22 9 44 6 49 -9 14
-49 12 -64 -3 -8 -8 -41 -12 -94 -11 -107 0 -202 39 -253 104 -66 83 -89 145
-92 252 -4 93 -3 99 34 185 37 84 38 93 36 182 -2 88 -9 120 -24 105z m317
-989 c14 -13 25 -35 25 -48 0 -46 -88 -157 -126 -157 -7 0 -22 -12 -33 -26
-16 -20 -19 -35 -15 -64 16 -97 -113 -189 -162 -115 -14 22 -15 31 -4 70 13
45 66 105 94 105 7 0 25 9 40 21 21 16 26 29 26 64 0 53 37 120 83 153 40 28
42 27 72 -3z"/>
<path d="M9966 1932 c-3 -5 2 -19 10 -31 15 -21 17 -21 29 -5 10 15 10 20 -1
31 -14 15 -30 17 -38 5z"/>
<path d="M1047 1923 c-12 -11 -8 -23 8 -23 8 0 15 7 15 15 0 16 -12 20 -23 8z"/>
<path d="M10740 1872 c0 -5 13 -25 30 -43 l30 -34 0 38 c0 25 -4 37 -14 37 -8
0 -21 3 -30 6 -9 3 -16 2 -16 -4z"/>
<path d="M9973 1863 c-13 -2 -23 -10 -23 -18 0 -22 -23 -23 -53 -3 -23 16 -30
18 -43 7 -21 -17 -14 -51 13 -65 13 -6 31 -18 40 -26 22 -20 126 -68 147 -68
25 0 46 -12 46 -26 0 -8 7 -14 15 -14 8 0 21 -13 30 -29 16 -33 51 -49 68 -32
16 16 27 14 27 -5 0 -9 6 -14 13 -11 19 6 15 42 -6 41 -9 -1 -25 11 -35 28
-14 24 -22 29 -51 26 -32 -3 -34 -1 -34 27 1 64 1 65 37 65 19 0 38 -4 41 -10
3 -5 29 -10 56 -10 28 0 59 -5 70 -11 15 -7 29 -7 52 1 56 21 107 28 107 16 0
-19 131 -48 147 -33 12 12 -10 46 -36 57 -23 9 -34 9 -51 0 -28 -15 -50 1 -32
23 21 25 -5 35 -79 29 -40 -3 -69 -1 -69 5 0 9 -69 14 -204 15 -65 0 -78 -10
-69 -53 4 -21 1 -27 -19 -32 -51 -14 -74 -9 -76 19 -1 15 3 33 9 40 7 9 7 19
-1 33 -6 12 -12 20 -13 20 -1 -1 -12 -4 -24 -6z"/>
<path d="M9900 1644 c0 -18 36 -72 60 -91 8 -7 28 -15 43 -18 15 -4 37 -20 49
-36 19 -25 107 -69 138 -69 10 0 -124 137 -174 179 -28 23 -86 51 -106 51 -5
0 -10 -7 -10 -16z"/>
<path d="M1045 1419 c-4 -6 -4 -13 -1 -16 8 -8 36 5 36 17 0 13 -27 13 -35 -1z"/>
<path d="M10640 1400 c0 -5 7 -10 15 -10 8 0 15 5 15 10 0 6 -7 10 -15 10 -8
0 -15 -4 -15 -10z"/>
<path d="M10068 1348 c7 -7 12 -31 12 -54 0 -38 2 -42 30 -47 16 -4 38 -16 47
-27 24 -28 57 -25 73 6 12 22 20 25 54 22 34 -2 41 1 44 17 3 17 1 17 -7 5 -9
-13 -11 -13 -11 1 0 36 -90 65 -117 38 -7 -7 -14 -6 -24 3 -20 19 -69 39 -80
33 -5 -4 -9 -1 -9 4 0 6 -5 11 -12 11 -9 0 -9 -3 0 -12z"/>
<path d="M10350 1310 c0 -5 7 -10 16 -10 8 0 12 5 9 10 -3 6 -10 10 -16 10 -5
0 -9 -4 -9 -10z"/>
<path d="M9840 1207 c0 -33 65 -68 101 -54 20 8 37 6 67 -6 22 -9 42 -13 46
-10 9 9 7 71 -1 76 -5 2 -44 0 -88 -5 -67 -7 -82 -6 -91 7 -17 22 -34 18 -34
-8z"/>
<path d="M10117 1079 c4 -12 14 -24 24 -26 11 -3 16 -9 13 -14 -3 -5 2 -6 10
-3 21 8 21 50 0 58 -34 13 -52 7 -47 -15z"/>
<path d="M10473 1045 c-15 -16 7 -39 32 -33 23 4 23 19 0 34 -16 10 -22 10
-32 -1z"/>
<path d="M1047 1034 c-4 -4 -7 -18 -7 -31 0 -28 23 -27 28 1 4 20 -11 40 -21
30z"/>
<path d="M9680 932 c0 -15 46 -52 63 -52 22 0 21 5 -5 35 -20 24 -58 35 -58
17z"/>
<path d="M10040 930 c0 -5 7 -10 16 -10 8 0 12 5 9 10 -3 6 -10 10 -16 10 -5
0 -9 -4 -9 -10z"/>
<path d="M9488 845 c-3 -3 -3 -16 0 -30 5 -29 39 -43 58 -23 12 12 12 17 -2
36 -14 20 -43 29 -56 17z"/>
<path d="M1037 774 c-10 -10 -9 -52 2 -58 20 -13 42 7 39 33 -3 25 -26 39 -41
25z"/>
<path d="M9890 520 c0 -18 26 -40 49 -40 16 0 13 26 -5 44 -21 22 -44 20 -44
-4z"/>
<path d="M1156 371 c-8 -12 21 -34 33 -27 6 4 8 13 4 21 -6 17 -29 20 -37 6z"/>
<path d="M10706 53 c-3 -3 -3 -10 0 -14 7 -12 34 -11 34 0 0 11 -26 22 -34 14z"/>
</g>
</svg>
